name rise49.25peak52.1432fall72.8391.mot
datacolumns 19
datarows 12
range 23.92990700000000 23.94823600000000
endheader
time	ground_force1_vx	ground_force1_vy	ground_force1_vz	ground_force1_px	ground_force1_py	ground_force1_pz	ground_force2_vx	ground_force2_vy	ground_force2_vz	ground_force2_px	ground_force2_py	ground_force2_pz	ground_torque1_x	ground_torque1_y	ground_torque1_z	ground_torque2_x	ground_torque2_y	ground_torque2_z	
23.92990700000000	54.31968700000000	788.15347999999994	57.30949200000000	0.32298700000000	0.00000000000000	0.10599700000000	0.00000000000000	0.00000000000000	0.00000000000000	0.00000000000000	0.00000000000000	0.00000000000000	0.00000000000000	24.96594500000000	0.00000000000000	0.00000000000000	0.00000000000000	0.00000000000000	
23.93157300000000	53.64832800000000	792.02823599999999	57.42121400000000	0.32226900000000	0.00000000000000	0.10598600000000	0.00000000000000	0.00000000000000	0.00000000000000	0.00000000000000	0.00000000000000	0.00000000000000	0.00000000000000	25.06487600000000	0.00000000000000	0.00000000000000	0.00000000000000	0.00000000000000	
23.93323800000000	52.96781900000000	795.71957799999996	57.53031300000000	0.32156700000000	0.00000000000000	0.10597600000000	0.00000000000000	0.00000000000000	0.00000000000000	0.00000000000000	0.00000000000000	0.00000000000000	0.00000000000000	25.16499200000000	0.00000000000000	0.00000000000000	0.00000000000000	0.00000000000000	
23.93492500000000	52.27879600000000	799.22349999999994	57.63678000000000	0.32087700000000	0.00000000000000	0.10596700000000	0.00000000000000	0.00000000000000	0.00000000000000	0.00000000000000	0.00000000000000	0.00000000000000	0.00000000000000	25.26613600000000	0.00000000000000	0.00000000000000	0.00000000000000	0.00000000000000	
23.93657300000000	51.58186800000000	802.53630199999998	57.74054300000000	0.32019900000000	0.00000000000000	0.10596100000000	0.00000000000000	0.00000000000000	0.00000000000000	0.00000000000000	0.00000000000000	0.00000000000000	0.00000000000000	25.36810500000000	0.00000000000000	0.00000000000000	0.00000000000000	0.00000000000000	
23.93823900000000	50.87761700000000	805.65460499999995	57.84146700000000	0.31953100000000	0.00000000000000	0.10595600000000	0.00000000000000	0.00000000000000	0.00000000000000	0.00000000000000	0.00000000000000	0.00000000000000	0.00000000000000	25.47065900000000	0.00000000000000	0.00000000000000	0.00000000000000	0.00000000000000	
23.93991100000000	50.16660000000000	808.57537100000002	57.93935800000000	0.31887000000000	0.00000000000000	0.10595300000000	0.00000000000000	0.00000000000000	0.00000000000000	0.00000000000000	0.00000000000000	0.00000000000000	0.00000000000000	25.57351900000000	0.00000000000000	0.00000000000000	0.00000000000000	0.00000000000000	
23.94159700000000	49.44934900000000	811.29591900000003	58.03396900000000	0.31821500000000	0.00000000000000	0.10595300000000	0.00000000000000	0.00000000000000	0.00000000000000	0.00000000000000	0.00000000000000	0.00000000000000	0.00000000000000	25.67637000000000	0.00000000000000	0.00000000000000	0.00000000000000	0.00000000000000	
23.94323700000000	48.72637700000000	813.81393900000000	58.12500500000000	0.31756400000000	0.00000000000000	0.10595500000000	0.00000000000000	0.00000000000000	0.00000000000000	0.00000000000000	0.00000000000000	0.00000000000000	0.00000000000000	25.77886700000000	0.00000000000000	0.00000000000000	0.00000000000000	0.00000000000000	
23.94491700000000	47.99817300000000	816.12750700000004	58.21212300000000	0.31691500000000	0.00000000000000	0.10595900000000	0.00000000000000	0.00000000000000	0.00000000000000	0.00000000000000	0.00000000000000	0.00000000000000	0.00000000000000	25.88063600000000	0.00000000000000	0.00000000000000	0.00000000000000	0.00000000000000	
23.94657700000000	47.26521000000000	818.23509500000000	58.29494200000000	0.31626600000000	0.00000000000000	0.10596600000000	0.00000000000000	0.00000000000000	0.00000000000000	0.00000000000000	0.00000000000000	0.00000000000000	0.00000000000000	25.98127500000000	0.00000000000000	0.00000000000000	0.00000000000000	0.00000000000000	
23.94823600000000	46.52794500000000	820.13558499999999	58.37304500000000	0.31561500000000	0.00000000000000	0.10597500000000	0.00000000000000	0.00000000000000	0.00000000000000	0.00000000000000	0.00000000000000	0.00000000000000	0.00000000000000	26.08036300000000	0.00000000000000	0.00000000000000	0.00000000000000	0.00000000000000	
